<svg xmlns="http://www.w3.org/2000/svg" width="253.017" height="253.017" viewBox="0 0 253.017 253.017">
  <g id="x" transform="translate(0 126.509) rotate(-45)">
    <path id="パス_745" data-name="パス 745" d="M3.195,3.195a9.938,9.938,0,0,0,0,14.072l159,159A9.95,9.95,0,0,0,176.265,162.2l-159-159a9.937,9.937,0,0,0-14.071,0Z" transform="translate(-0.275 -0.275)" fill="#fff" fill-rule="evenodd"/>
    <path id="パス_746" data-name="パス 746" d="M176.259,3.195a9.938,9.938,0,0,1,0,14.072l-159,159A9.95,9.95,0,1,1,3.189,162.2l159-159a9.937,9.937,0,0,1,14.071,0Z" transform="translate(-0.269 -0.275)" fill="#fff" fill-rule="evenodd"/>
  </g>
</svg>
