<svg id="check-circle" xmlns="http://www.w3.org/2000/svg" width="42.002" height="39" viewBox="0 0 42.002 39">
  <defs>
    <style>
      .cls-1 {
        fill-rule: evenodd;
        fill: #5cb85c;
      }
    </style>
  </defs>
  <path id="パス_473" data-name="パス 473" class="cls-1" d="M32.889.666a1.5,1.5,0,0,1,0,2.124l-21,21a1.5,1.5,0,0,1-2.124,0l-9-9a1.5,1.5,0,0,1,2.124-2.124l7.938,7.941L30.765.666a1.5,1.5,0,0,1,2.124,0Z" transform="translate(8.673 2.775)"/>
  <path id="パス_474" data-name="パス 474" class="cls-1" d="M19.675,3.177a16.5,16.5,0,1,0,16.5,16.5,1.5,1.5,0,0,1,3,0,19.5,19.5,0,1,1-9.75-16.89,1.5,1.5,0,1,1-1.5,2.595A16.417,16.417,0,0,0,19.675,3.177Z" transform="translate(-0.175 -0.175)"/>
</svg>
