<svg id="user_icon" xmlns="http://www.w3.org/2000/svg" width="62" height="62" viewBox="0 0 62 62">
  <g id="楕円形_1" data-name="楕円形 1" fill="rgba(0,0,0,0)" stroke="#000" stroke-width="4">
    <circle cx="31" cy="31" r="31" stroke="none"/>
    <circle cx="31" cy="31" r="29" fill="none"/>
  </g>
  <path id="person" d="M36.391,39.682a3.222,3.222,0,0,0,3.29-3.29c0-3.29-3.29-13.161-19.741-13.161S.2,33.1.2,36.391a3.222,3.222,0,0,0,3.29,3.29ZM3.507,36.576v0Zm.056-.184H36.319l.046-.007.026-.007A8.791,8.791,0,0,0,33.654,30.9c-2.145-2.145-6.182-4.382-13.713-4.382S8.373,28.758,6.228,30.9A8.81,8.81,0,0,0,3.49,36.378Zm32.816.184v0ZM19.941,16.651a6.58,6.58,0,1,0-4.653-1.927A6.58,6.58,0,0,0,19.941,16.651Zm9.87-6.58A9.87,9.87,0,1,1,26.92,3.091a9.87,9.87,0,0,1,2.891,6.979Z" transform="translate(10.878 7.909)" fill-rule="evenodd"/>
</svg>
