<svg id="search" xmlns="http://www.w3.org/2000/svg" width="48" height="47.998" viewBox="0 0 48 47.998">
  <path id="パス_648" data-name="パス 648" d="M1.484,1.487a3,3,0,0,1,4.245,0l11.55,11.55a3,3,0,1,1-4.242,4.245L1.487,5.732a3,3,0,0,1,0-4.245Z" transform="translate(29.841 29.838)" fill-rule="evenodd"/>
  <path id="パス_649" data-name="パス 649" d="M19.6,36.1A16.5,16.5,0,1,0,7.933,31.267,16.5,16.5,0,0,0,19.6,36.1ZM39.1,19.6A19.5,19.5,0,1,1,33.388,5.811,19.5,19.5,0,0,1,39.1,19.6Z" transform="translate(-0.1 -0.1)" fill-rule="evenodd"/>
</svg>
